<?xml version="1.0" standalone="no"?><!DOCTYPE svg PUBLIC "-//W3C//DTD SVG 1.1//EN" "http://www.w3.org/Graphics/SVG/1.1/DTD/svg11.dtd"><svg t="1716395528511" class="icon" viewBox="0 0 1024 1024" version="1.1" xmlns="http://www.w3.org/2000/svg" p-id="2843" width="64" height="64" xmlns:xlink="http://www.w3.org/1999/xlink"><path d="M186.197333 475.648C138.922667 517.973333 109.226667 579.413333 109.226667 647.68c0 127.317333 103.253333 230.570667 230.570666 230.570667 87.722667 0 164.010667-48.981333 202.922667-121.173334L186.197333 475.648z" fill="#E597D4" p-id="2844"></path><path d="M339.626667 909.653333c-144.384 0-261.973333-117.418667-261.973334-261.973333 0-74.581333 31.914667-145.749333 87.552-195.413333 11.434667-10.069333 28.501333-10.581333 40.448-1.194667l356.522667 281.258667c11.946667 9.557333 15.36 26.112 8.192 39.594666C524.458667 856.917333 436.053333 909.653333 339.626667 909.653333z m-150.869334-391.850666c-30.890667 35.84-48.128 81.92-48.128 129.877333 0 109.738667 89.258667 198.997333 198.997334 198.997333 64.512 0 124.245333-31.061333 161.450666-82.432l-312.32-246.442666z" fill="#E597D4" p-id="2845"></path><path d="M169.130667 491.178667c-5.12-36.522667-7.68-75.605333-7.68-115.882667 0-112.810667 24.234667-303.786667 115.2-303.786667s115.2 190.976 115.2 303.786667c0 26.282667-1.194667 52.394667-3.242667 77.653333l-62.634667-5.461333c2.048-23.381333 3.072-47.616 3.072-72.021333 0-150.186667-36.352-230.570667-52.394666-240.469334-16.042667 9.898667-52.394667 90.282667-52.394667 240.469334 0 37.376 2.389333 73.557333 6.997333 107.349333l-62.122666 8.362667zM884.736 475.648c47.274667 42.154667 76.970667 103.594667 76.970667 172.032 0 127.317333-103.253333 230.570667-230.570667 230.570667-87.722667 0-164.010667-48.981333-202.922667-121.173334l356.522667-281.429333z" fill="#E597D4" p-id="2846"></path><path d="M731.306667 909.653333c-96.426667 0-184.832-52.736-230.570667-137.728-7.338667-13.482667-3.754667-30.208 8.192-39.594666L865.28 451.072c11.946667-9.386667 29.013333-8.874667 40.448 1.194667 55.637333 49.664 87.552 120.832 87.552 195.413333-0.170667 144.384-117.589333 261.973333-261.973333 261.973333z m-161.450667-145.408c37.205333 51.370667 96.938667 82.432 161.450667 82.432 109.738667 0 198.997333-89.258667 198.997333-198.997333 0-47.786667-17.237333-93.866667-48.128-129.877333l-312.32 246.442666z" fill="#E597D4" p-id="2847"></path><path d="M901.632 491.178667l-62.293333-8.533334c4.608-33.792 6.997333-69.973333 6.997333-107.349333 0-150.186667-36.352-230.570667-52.394667-240.469333-16.042667 9.898667-52.394667 90.282667-52.394666 240.469333 0 24.576 1.024 48.810667 3.072 72.021333l-62.634667 5.461334c-2.218667-25.088-3.242667-51.2-3.242667-77.653334 0-112.810667 24.234667-303.786667 115.2-303.786666s115.2 190.976 115.2 303.786666c0.170667 40.448-2.389333 79.36-7.509333 116.053334z" fill="#E597D4" p-id="2848"></path><path d="M144.213333 475.648c-47.274667 42.154667-76.970667 103.594667-76.970666 172.032 0 127.317333 103.253333 230.570667 230.570666 230.570667 87.722667 0 164.010667-48.981333 202.922667-121.173334L144.213333 475.648z" fill="#FC6396" p-id="2849"></path><path d="M842.752 475.648c47.274667 42.154667 76.970667 103.594667 76.970667 172.032 0 127.317333-103.253333 230.570667-230.570667 230.570667-87.722667 0-164.010667-48.981333-202.922667-121.173334l356.522667-281.429333z" fill="#FF4F80" p-id="2850"></path><path d="M864.085333 452.608c2.218667-25.088 3.242667-50.858667 3.242667-77.312 0-112.810667-24.234667-303.786667-115.2-303.786667s-115.2 190.976-115.2 303.786667c0 26.282667 1.194667 52.394667 3.242667 77.653333 1.536 17.237333 16.725333 30.208 34.133333 28.501334 17.237333-1.536 30.037333-16.725333 28.501333-34.133334-2.048-23.381333-3.072-47.616-3.072-72.021333 0-150.186667 36.352-230.570667 52.394667-240.469333 16.042667 9.898667 52.394667 90.282667 52.394667 240.469333 0 32.768-1.877333 64.682667-5.461334 94.890667l-305.493333 241.152-305.664-241.152c-3.584-30.037333-5.461333-61.952-5.461333-94.890667 0-150.186667 36.352-230.570667 52.394666-240.469333 16.042667 9.898667 52.394667 90.282667 52.394667 240.469333 0 24.576-1.024 48.810667-3.072 72.021333-1.536 17.237333 11.264 32.597333 28.501333 34.133334 17.237333 1.536 32.597333-11.264 34.133334-28.501334 2.218667-25.088 3.242667-51.2 3.242666-77.653333 0-112.810667-24.234667-303.786667-115.2-303.786667s-115.2 190.976-115.2 303.786667c0 26.453333 1.194667 52.394667 3.242667 77.312-55.296 49.664-87.04 120.661333-87.04 195.072C35.84 792.064 153.258667 909.653333 297.813333 909.653333c75.776 0 146.602667-32.597333 195.754667-87.893333C542.72 877.056 613.546667 909.653333 689.322667 909.653333c144.384 0 261.973333-117.418667 261.973333-261.973333 0-74.24-31.744-145.408-87.210667-195.072zM297.813333 846.677333c-109.738667 0-198.997333-89.258667-198.997333-198.997333 0-47.786667 17.237333-93.866667 48.128-129.877333L455.168 761.173333c0.341333 2.218667 0.853333 4.266667 1.536 6.314667-37.205333 49.493333-95.914667 79.189333-158.890667 79.189333z m391.509334 0c-63.146667 0-121.685333-29.696-159.061334-79.189333 0.682667-2.048 1.194667-4.266667 1.536-6.314667l308.224-243.370666c30.890667 35.84 48.128 81.92 48.128 129.877333 0.170667 109.738667-89.088 198.997333-198.826666 198.997333z" fill="#642363" p-id="2851"></path><path d="M172.032 742.058667c-2.048 0-4.096-0.512-5.802667-1.706667-68.778667-45.738667-36.864-144.042667-35.498666-148.309333 1.877333-5.461333 7.68-8.362667 13.312-6.656 5.461333 1.877333 8.533333 7.68 6.656 13.312-0.341333 0.853333-28.16 87.210667 27.306666 124.245333 4.778667 3.242667 6.144 9.728 2.901334 14.506667-2.218667 2.901333-5.461333 4.608-8.874667 4.608z" fill="#FFE9F1" opacity=".87" p-id="2852"></path></svg>